<?xml version="1.0" encoding="UTF-8"?>
<svg xmlns="http://www.w3.org/2000/svg" xmlns:xlink="http://www.w3.org/1999/xlink" width="22px" height="22px" viewBox="0 0 22 22" version="1.1">
<g id="surface1">
<path style="fill-rule:nonzero;fill:rgb(0%,0%,0%);fill-opacity:1;stroke-width:2;stroke-linecap:butt;stroke-linejoin:miter;stroke:rgb(0%,0%,0%);stroke-opacity:1;stroke-miterlimit:10;" d="M 101 1.004261 C 45.837358 1.004261 1.004261 45.837358 1.004261 101 C 1.004261 156.162642 45.837358 200.995739 101 200.995739 C 156.162642 200.995739 200.995739 156.162642 200.995739 101 C 200.995739 45.837358 156.162642 1.004261 101 1.004261 Z M 101 193.284446 C 50.105469 193.284446 8.715554 151.894531 8.715554 101 C 8.715554 50.105469 50.105469 8.715554 101 8.715554 C 151.894531 8.715554 193.284446 50.105469 193.284446 101 C 193.284446 151.894531 151.894531 193.284446 101 193.284446 Z M 101 193.284446 " transform="matrix(0.108911,0,0,0.108911,0,0)"/>
<path style="fill-rule:nonzero;fill:rgb(0%,0%,0%);fill-opacity:1;stroke-width:2;stroke-linecap:butt;stroke-linejoin:miter;stroke:rgb(0%,0%,0%);stroke-opacity:1;stroke-miterlimit:10;" d="M 166.528054 86.689276 C 164.447798 86.151278 162.367543 87.406605 161.793679 89.486861 C 154.692116 117.211648 129.693182 136.615412 101 136.615412 C 72.306818 136.615412 47.307884 117.211648 40.206321 89.486861 C 39.668324 87.406605 37.552202 86.151278 35.471946 86.689276 C 33.39169 87.191406 32.17223 89.307528 32.674361 91.387784 C 40.672585 122.555753 68.756037 144.326705 100.964134 144.326705 C 133.17223 144.326705 161.255682 122.555753 169.253906 91.387784 C 169.82777 89.307528 168.60831 87.191406 166.528054 86.689276 Z M 166.528054 86.689276 " transform="matrix(0.108911,0,0,0.108911,0,0)"/>
<path style="fill-rule:nonzero;fill:rgb(0%,0%,0%);fill-opacity:1;stroke-width:2;stroke-linecap:butt;stroke-linejoin:miter;stroke:rgb(0%,0%,0%);stroke-opacity:1;stroke-miterlimit:10;" d="M 51.82706 62.51527 C 53.943182 62.802202 55.879972 61.29581 56.166903 59.215554 C 57.171165 51.611861 63.627131 45.873224 71.302557 45.873224 C 79.013849 45.873224 85.469815 51.611861 86.474077 59.215554 C 86.725142 61.152344 88.410866 62.551136 90.31179 62.551136 C 90.491122 62.551136 90.634588 62.551136 90.849787 62.51527 C 92.965909 62.228338 94.436435 60.327415 94.149503 58.211293 C 92.678977 46.769886 82.887429 38.161932 71.302557 38.161932 C 59.753551 38.161932 49.962003 46.769886 48.491477 58.211293 C 48.240412 60.327415 49.710938 62.264205 51.82706 62.51527 Z M 51.82706 62.51527 " transform="matrix(0.108911,0,0,0.108911,0,0)"/>
<path style="fill-rule:nonzero;fill:rgb(0%,0%,0%);fill-opacity:1;stroke-width:2;stroke-linecap:butt;stroke-linejoin:miter;stroke:rgb(0%,0%,0%);stroke-opacity:1;stroke-miterlimit:10;" d="M 111.150213 62.51527 C 113.266335 62.802202 115.203125 61.29581 115.490057 59.215554 C 116.494318 51.611861 122.950284 45.873224 130.62571 45.873224 C 138.337003 45.873224 144.792969 51.611861 145.79723 59.215554 C 146.048295 61.152344 147.73402 62.551136 149.634943 62.551136 C 149.814276 62.551136 149.957741 62.551136 150.17294 62.51527 C 152.289062 62.228338 153.759588 60.327415 153.472656 58.211293 C 152.002131 46.769886 142.210582 38.161932 130.62571 38.161932 C 119.076705 38.161932 109.285156 46.769886 107.814631 58.211293 C 107.563565 60.327415 109.034091 62.264205 111.150213 62.51527 Z M 111.150213 62.51527 " transform="matrix(0.108911,0,0,0.108911,0,0)"/>
</g>
</svg>
