<svg xmlns="http://www.w3.org/2000/svg" xmlns:xlink="http://www.w3.org/1999/xlink" width="25px" height="25px" viewBox="0 0 25 25" version="1.1">
<g id="surface1">
<path style="fill-rule:nonzero;fill:#ffffff;fill-opacity:1;stroke-width:1;stroke-linecap:butt;stroke-linejoin:miter;stroke:#ffffff;stroke-opacity:1;stroke-miterlimit:10;" d="M 19.378125 25.500312 L 6.621875 25.500312 C 3.241875 25.500312 0.499688 22.75 0.499688 19.378125 L 0.499688 6.621875 C 0.499688 3.25 3.25 0.499688 6.621875 0.499688 L 19.37 0.499688 C 22.75 0.499688 25.488125 3.25 25.488125 6.621875 L 25.488125 19.37 C 25.488125 22.75 22.741875 25.488125 19.37 25.488125 Z M 6.621875 1.271563 C 3.668438 1.271563 1.271563 3.668438 1.271563 6.621875 L 1.271563 19.37 C 1.271563 22.319375 3.668438 24.720313 6.621875 24.720313 L 19.37 24.720313 C 22.319375 24.720313 24.720313 22.319375 24.720313 19.37 L 24.720313 6.621875 C 24.720313 3.668438 22.319375 1.271563 19.37 1.271563 Z M 17.200625 12.61 L 13.381875 12.61 L 13.381875 8.79125 C 13.381875 8.58 13.21125 8.40125 12.991875 8.40125 C 12.768438 8.40125 12.601875 8.571875 12.601875 8.79125 L 12.601875 12.61 L 8.779063 12.61 C 8.571875 12.61 8.389062 12.780625 8.389062 13 C 8.389062 13.219375 8.559688 13.39 8.779063 13.39 L 12.601875 13.39 L 12.601875 17.20875 C 12.601875 17.42 12.768438 17.59875 12.991875 17.59875 C 13.21125 17.59875 13.381875 17.428125 13.381875 17.20875 L 13.381875 13.39 L 17.200625 13.39 C 17.411875 13.39 17.590625 13.219375 17.590625 13 C 17.590625 12.780625 17.42 12.61 17.200625 12.61 Z M 17.200625 12.61 " transform="matrix(0.961538,0,0,0.961538,0,0)"/>
</g>
</svg>