<?xml version="1.0" encoding="UTF-8"?>
<svg xmlns="http://www.w3.org/2000/svg" xmlns:xlink="http://www.w3.org/1999/xlink" width="25px" height="25px" viewBox="0 0 25 25" version="1.1">
<g id="surface1">
<path style="fill-rule:nonzero;fill:rgb(0%,0%,0%);fill-opacity:1;stroke-width:2;stroke-linecap:butt;stroke-linejoin:miter;stroke:rgb(0%,0%,0%);stroke-opacity:1;stroke-miterlimit:10;" d="M 25.890469 25.320938 L 19.621406 18.790313 C 21.081094 16.90875 21.950156 14.520938 21.950156 11.930625 C 21.950156 5.902031 17.250469 0.999844 11.470781 0.999844 C 5.691094 0.999844 0.999844 5.902031 0.999844 11.930625 C 0.999844 17.959219 5.699531 22.861406 11.479219 22.861406 C 14.491406 22.861406 17.208281 21.528281 19.132031 19.402031 L 25.358906 25.890469 C 25.510781 26.038125 25.75125 26.038125 25.898906 25.890469 C 26.050781 25.738594 26.050781 25.48125 25.898906 25.329375 Z M 11.479219 22.059844 C 6.121406 22.059844 1.759219 17.512031 1.759219 11.930625 C 1.759219 6.349219 6.121406 1.78875 11.479219 1.78875 C 16.84125 1.78875 21.199219 6.340781 21.199219 11.917969 C 21.199219 17.499375 16.84125 22.051406 11.479219 22.051406 Z M 11.479219 22.059844 " transform="matrix(0.925926,0,0,0.925926,0,0)"/>
</g>
</svg>
