<?xml version="1.0" encoding="UTF-8"?>
<svg xmlns="http://www.w3.org/2000/svg" xmlns:xlink="http://www.w3.org/1999/xlink" width="25px" height="25px" viewBox="0 0 25 25" version="1.1">
<defs>
<clipPath id="clip1">
  <path d="M 0.480469 0.464844 L 24.519531 0.464844 L 24.519531 24.503906 L 0.480469 24.503906 Z M 0.480469 0.464844 "/>
</clipPath>
</defs>
<g id="surface1">
<g clip-path="url(#clip1)" clip-rule="nonzero">
<path style="fill-rule:nonzero;fill:rgb(0%,0%,0%);fill-opacity:1;stroke-width:1;stroke-linecap:butt;stroke-linejoin:miter;stroke:rgb(0%,0%,0%);stroke-opacity:1;stroke-miterlimit:10;" d="M 25.09 25.450937 L 16.859375 25.450937 C 16.631875 25.450937 16.449063 25.280312 16.449063 25.069062 L 16.449063 17.72 C 16.449063 15.969062 14.90125 14.530937 13.008125 14.530937 C 11.119063 14.530937 9.57125 15.969062 9.57125 17.72 L 9.57125 25.069062 C 9.57125 25.280312 9.388438 25.450937 9.160938 25.450937 L 0.91 25.450937 C 0.678438 25.450937 0.499688 25.280312 0.499688 25.069062 L 0.499688 12.04875 C 0.499688 11.95125 0.540312 11.849687 0.621563 11.780625 L 12.699375 0.60875 C 12.861875 0.458437 13.121875 0.458437 13.280313 0.60875 C 17.310313 4.33 21.348437 8.059375 25.378438 11.780625 C 25.459688 11.849687 25.500312 11.95125 25.500312 12.04875 L 25.500312 25.069062 C 25.500312 25.280312 25.321563 25.450937 25.09 25.450937 Z M 17.269687 24.69125 L 24.679688 24.69125 L 24.679688 12.21125 C 20.779688 8.611875 16.891875 5.008437 12.991875 1.42125 L 1.320312 12.21125 L 1.320312 24.69125 L 8.750625 24.69125 L 8.750625 17.72 C 8.750625 15.550625 10.668125 13.77125 13.008125 13.77125 C 15.348125 13.77125 17.269687 15.550625 17.269687 17.72 Z M 17.269687 24.69125 " transform="matrix(0.961538,0,0,0.961538,0,0.0240385)"/>
</g>
</g>
</svg>
