<svg xmlns="http://www.w3.org/2000/svg" viewBox="0 0 22 20"><title>Asset 28</title><g id="Layer_2" data-name="Layer 2"><g id="post"><path d="M19,20H3a3,3,0,0,1-3-3V6A3,3,0,0,1,3,3H5.15V2.85A2.86,2.86,0,0,1,8,0h6a2.86,2.86,0,0,1,2.85,2.85V3H19a3,3,0,0,1,3,3V17A3,3,0,0,1,19,20ZM3,5A1,1,0,0,0,2,6V17a1,1,0,0,0,1,1H19a1,1,0,0,0,1-1V6a1,1,0,0,0-1-1H15.85a1,1,0,0,1-1-1V2.85A.85.85,0,0,0,14,2H8a.85.85,0,0,0-.85.85V4a1,1,0,0,1-1,1Z"/><path d="M11,16a5,5,0,1,1,5-5A5,5,0,0,1,11,16Zm0-8a3,3,0,1,0,3,3A3,3,0,0,0,11,8Z"/></g></g></svg>