<?xml version="1.0" encoding="UTF-8"?>
<svg xmlns="http://www.w3.org/2000/svg" xmlns:xlink="http://www.w3.org/1999/xlink" width="40px" height="42px" viewBox="0 0 40 42" version="1.1">
<g id="surface1">
<path style="fill-rule:nonzero;fill:rgb(0%,0%,0%);fill-opacity:1;stroke-width:2;stroke-linecap:butt;stroke-linejoin:miter;stroke:rgb(0%,0%,0%);stroke-opacity:1;stroke-miterlimit:10;" d="M 159.105621 28.871642 L 117.074364 28.871642 L 100.989254 3.66296 C 100.989254 3.66296 100.933012 3.625392 100.914265 3.587823 C 100.708045 3.268488 100.389343 3.02429 100.108135 2.742524 C 99.826926 2.460758 99.564465 2.141423 99.245763 1.91601 C 99.227015 1.897226 99.208268 1.878441 99.170774 1.840872 C 98.945807 1.709382 98.664599 1.671813 98.402138 1.559106 C 97.970952 1.352478 97.577261 1.145849 97.10858 1.051927 C 96.714889 0.976789 96.358692 1.014358 95.965 1.014358 C 95.571308 1.014358 95.215111 0.976789 94.82142 1.051927 C 94.352739 1.145849 93.940301 1.352478 93.509115 1.559106 C 93.265401 1.671813 92.984193 1.709382 92.759226 1.840872 C 92.721732 1.878441 92.702985 1.897226 92.684237 1.91601 C 92.346787 2.141423 92.103074 2.460758 91.803118 2.761309 C 91.52191 3.043075 91.203207 3.287272 90.996988 3.606607 C 90.978241 3.625392 90.940746 3.644176 90.921999 3.66296 L 74.836888 28.871642 L 32.824379 28.871642 C 15.276985 28.871642 0.991607 43.147795 0.991607 60.692436 L 0.991607 169.153632 C 0.991607 186.698273 15.276985 200.974426 32.824379 200.974426 L 159.105621 200.974426 C 176.653015 200.974426 190.919646 186.698273 190.919646 169.153632 L 190.919646 60.692436 C 190.919646 43.147795 176.634268 28.871642 159.105621 28.871642 Z M 37.698655 187.130314 C 41.485592 171.313839 53.615041 160.061976 67.844177 160.061976 L 124.10457 160.061976 C 138.314959 160.061976 150.444408 171.313839 154.231345 187.130314 Z M 178.996417 169.134847 C 178.996417 177.493911 173.803438 184.650772 166.473277 187.58114 C 162.423878 164.795648 144.913979 148.152659 124.085823 148.152659 L 67.82543 148.152659 C 46.997274 148.152659 29.487374 164.795648 25.437976 187.58114 C 18.107815 184.650772 12.914836 177.493911 12.914836 169.134847 L 12.914836 60.692436 C 12.914836 49.722339 21.838511 40.799743 32.805631 40.799743 L 78.117651 40.799743 C 80.067361 40.799743 81.998325 39.822954 83.141905 38.038435 L 95.965 17.957898 L 108.788095 38.038435 C 109.912928 39.822954 111.843891 40.780959 113.812349 40.780959 C 113.812349 40.780959 159.105621 40.780959 159.105621 40.780959 C 170.072742 40.780959 178.996417 49.722339 178.996417 60.692436 Z M 178.996417 169.134847 " transform="matrix(0.208364,0,0,0.207952,0.00432201,0)"/>
<path style="fill-rule:nonzero;fill:rgb(0%,0%,0%);fill-opacity:1;stroke-width:2;stroke-linecap:butt;stroke-linejoin:miter;stroke:rgb(0%,0%,0%);stroke-opacity:1;stroke-miterlimit:10;" d="M 95.965 59.058192 C 74.143241 59.058192 56.389628 76.790677 56.389628 98.618164 C 56.389628 120.445651 74.143241 138.196921 95.965 138.196921 C 117.768011 138.196921 135.521624 120.426867 135.521624 98.618164 C 135.521624 76.809461 117.786759 59.058192 95.965 59.058192 Z M 95.965 126.268819 C 80.723514 126.268819 68.312857 113.852322 68.312857 98.618164 C 68.312857 83.384006 80.723514 70.986294 95.965 70.986294 C 111.206486 70.986294 123.598395 83.384006 123.598395 98.618164 C 123.598395 113.852322 111.206486 126.268819 95.965 126.268819 Z M 95.965 126.268819 " transform="matrix(0.208364,0,0,0.207952,0.00432201,0)"/>
</g>
</svg>
