<svg xmlns="http://www.w3.org/2000/svg" xmlns:xlink="http://www.w3.org/1999/xlink" width="25px" height="25px" viewBox="0 0 25 25" version="1.1">
<g id="surface1">
<path style=" stroke:none;fill-rule:nonzero;fill:#ffffff;fill-opacity:1;" d="M 9.949219 6.898438 L 0 6.898438 L 0 6.191406 C 0 2.921875 2.53125 0.25 5.71875 0.03125 C 7.039062 2.230469 8.398438 4.421875 9.730469 6.550781 Z M 10.949219 6.898438 L 18.410156 6.898438 C 17.730469 5.769531 17.019531 4.640625 16.328125 3.550781 C 15.609375 2.398438 14.859375 1.210938 14.148438 0.0195312 L 6.710938 0.0195312 C 7.941406 2.070312 9.21875 4.109375 10.449219 6.101562 Z M 18.859375 0.0195312 L 15.140625 0.0195312 C 15.769531 1.050781 16.421875 2.089844 17.050781 3.089844 C 17.828125 4.339844 18.640625 5.621094 19.398438 6.898438 L 25 6.898438 L 25 6.191406 C 25 2.789062 22.25 0.0195312 18.859375 0.0195312 Z M 25 7.761719 L 25 18.820312 C 25 22.21875 22.25 24.988281 18.859375 24.988281 L 6.140625 24.988281 C 2.761719 24.988281 0 22.21875 0 18.820312 L 0 7.75 C 8.351562 7.75 16.679688 7.75 25 7.75 Z M 16.691406 15.988281 C 16.691406 15.800781 16.601562 15.628906 16.441406 15.539062 L 10.300781 11.988281 C 10.21875 11.941406 10.148438 11.929688 10.078125 11.929688 C 9.980469 11.929688 9.898438 11.96875 9.859375 11.988281 C 9.710938 12.078125 9.609375 12.25 9.609375 12.441406 L 9.609375 19.558594 C 9.609375 19.75 9.699219 19.921875 9.859375 20.011719 C 9.929688 20.050781 10.101562 20.121094 10.300781 20.011719 L 16.441406 16.441406 C 16.601562 16.351562 16.691406 16.179688 16.691406 15.988281 Z M 16.691406 15.988281 "/>
</g>
</svg>