<?xml version="1.0" encoding="UTF-8"?>
<svg xmlns="http://www.w3.org/2000/svg" xmlns:xlink="http://www.w3.org/1999/xlink" width="22px" height="22px" viewBox="0 0 22 22" version="1.1">
<g id="surface1">
<path style=" stroke:none;fill-rule:nonzero;fill:rgb(0%,0%,0%);fill-opacity:1;" d="M 17.070312 0.0273438 L 4.933594 0.0273438 C 2.210938 0.0273438 0 2.230469 0 4.949219 L 0 17.0625 C 0 19.699219 2.0625 21.851562 4.699219 21.972656 L 4.75 21.972656 C 4.808594 21.972656 4.863281 21.980469 4.929688 21.980469 L 17.066406 21.980469 C 19.789062 21.980469 22 19.773438 22 17.058594 L 22 4.941406 C 22 2.226562 19.789062 0.0195312 17.066406 0.0195312 L 17.074219 0.0273438 Z M 1.285156 4.949219 C 1.285156 2.941406 2.921875 1.308594 4.933594 1.308594 L 17.074219 1.308594 C 19.082031 1.308594 20.71875 2.941406 20.71875 4.949219 L 20.71875 11.417969 L 17.085938 9.773438 C 16.476562 9.5 15.75 9.628906 15.273438 10.101562 L 10.304688 14.980469 L 5.703125 12.003906 C 5.636719 11.960938 5.566406 11.921875 5.496094 11.886719 C 5.464844 11.875 5.433594 11.867188 5.40625 11.851562 C 5.363281 11.835938 5.320312 11.820312 5.277344 11.804688 C 5.242188 11.796875 5.207031 11.792969 5.171875 11.785156 C 5.128906 11.777344 5.09375 11.765625 5.050781 11.761719 C 5.015625 11.753906 4.976562 11.753906 4.941406 11.75 C 4.902344 11.75 4.863281 11.742188 4.824219 11.742188 L 4.820312 11.742188 C 4.769531 11.742188 4.722656 11.746094 4.675781 11.75 C 4.644531 11.75 4.613281 11.75 4.582031 11.761719 C 4.535156 11.769531 4.488281 11.78125 4.441406 11.789062 C 4.410156 11.796875 4.378906 11.804688 4.351562 11.8125 C 4.304688 11.824219 4.253906 11.847656 4.207031 11.867188 C 4.183594 11.878906 4.152344 11.886719 4.128906 11.898438 C 4.054688 11.929688 3.984375 11.96875 3.917969 12.015625 L 1.289062 13.761719 L 1.289062 4.941406 Z M 1.285156 17.0625 L 1.285156 15.304688 L 4.628906 13.082031 C 4.742188 13.003906 4.890625 13.003906 5.003906 13.082031 L 9.367188 15.898438 L 4.507812 20.675781 C 2.683594 20.460938 1.289062 18.925781 1.289062 17.058594 L 1.285156 17.058594 Z M 20.71875 17.0625 C 20.71875 19.066406 19.082031 20.699219 17.070312 20.699219 L 6.3125 20.699219 L 16.171875 11.015625 C 16.269531 10.917969 16.425781 10.886719 16.554688 10.945312 L 20.71875 12.828125 Z M 7.878906 9.4375 C 9.417969 9.4375 10.671875 8.1875 10.671875 6.652344 C 10.671875 5.117188 9.417969 3.871094 7.878906 3.871094 C 6.34375 3.871094 5.089844 5.121094 5.089844 6.652344 C 5.089844 8.1875 6.34375 9.4375 7.878906 9.4375 Z M 7.878906 5.152344 C 8.710938 5.152344 9.382812 5.828125 9.382812 6.652344 C 9.382812 7.476562 8.710938 8.15625 7.878906 8.15625 C 7.050781 8.15625 6.375 7.480469 6.375 6.652344 C 6.375 5.828125 7.046875 5.152344 7.878906 5.152344 Z M 7.878906 5.152344 "/>
</g>
</svg>
