<svg xmlns="http://www.w3.org/2000/svg" viewBox="0 0 22 22"><title>Asset 2</title><g id="Layer_2" data-name="Layer 2"><g id="post"><path d="M21,9a1,1,0,0,1-1-1V5a3,3,0,0,0-3-3H14a1,1,0,0,1,0-2h3a5,5,0,0,1,5,5V8A1,1,0,0,1,21,9Z"/><path d="M1,9A1,1,0,0,1,0,8V5A5,5,0,0,1,5,0H8A1,1,0,0,1,8,2H5A3,3,0,0,0,2,5V8A1,1,0,0,1,1,9Z"/><path d="M17,22H14a1,1,0,0,1,0-2h3a3,3,0,0,0,3-3V15a1,1,0,0,1,2,0v2A5,5,0,0,1,17,22Z"/><path d="M8,22H5a5,5,0,0,1-5-5V15a1,1,0,0,1,2,0v2a3,3,0,0,0,3,3H8a1,1,0,0,1,0,2Z"/><path d="M13.5,17h-5A3.5,3.5,0,0,1,5,13.5v-5A3.5,3.5,0,0,1,8.5,5h5A3.5,3.5,0,0,1,17,8.5v5A3.5,3.5,0,0,1,13.5,17ZM8.5,7A1.5,1.5,0,0,0,7,8.5v5A1.5,1.5,0,0,0,8.5,15h5A1.5,1.5,0,0,0,15,13.5v-5A1.5,1.5,0,0,0,13.5,7Z"/></g></g></svg>