<?xml version="1.0" encoding="UTF-8"?>
<svg xmlns="http://www.w3.org/2000/svg" xmlns:xlink="http://www.w3.org/1999/xlink" width="22px" height="34px" viewBox="0 0 22 34" version="1.1">
<g id="surface1">
<path style="fill-rule:nonzero;fill:rgb(0%,0%,0%);fill-opacity:1;stroke-width:1;stroke-linecap:butt;stroke-linejoin:miter;stroke:rgb(0%,0%,0%);stroke-opacity:1;stroke-miterlimit:10;" d="M 27.924316 67.140491 L 27.924316 76.47268 L 39.426365 76.47268 L 39.426365 80.296738 L 12.563635 80.296738 L 12.563635 76.47268 L 24.065684 76.47268 L 24.065684 67.140491 C 10.892791 66.154237 0.498484 55.12867 0.498484 41.870076 L 0.498484 31.45859 L 4.338654 31.45859 L 4.338654 41.870076 C 4.338654 53.695811 14.077548 63.390867 25.985769 63.390867 C 37.903221 63.390867 47.642115 53.71442 47.642115 41.870076 L 47.642115 31.45859 L 51.491516 31.45859 L 51.491516 41.870076 C 51.491516 55.12867 41.097209 66.154237 27.924316 67.140491 Z M 25.985769 0.503262 C 34.561534 0.503262 41.558768 7.462861 41.558768 15.96697 L 41.558768 41.870076 C 41.558768 50.392793 34.552303 57.352392 25.985769 57.352392 C 17.428466 57.352392 10.422001 50.392793 10.422001 41.870076 L 10.422001 15.96697 C 10.422001 7.462861 17.428466 0.503262 25.985769 0.503262 Z M 25.985769 4.32732 C 19.551637 4.32732 14.271403 9.565628 14.271403 15.976274 L 14.271403 41.87938 C 14.271403 48.290027 19.551637 53.528334 25.985769 53.528334 C 32.429132 53.528334 37.709366 48.290027 37.709366 41.87938 L 37.709366 15.96697 C 37.709366 9.565628 32.429132 4.318016 25.985769 4.318016 Z M 25.985769 4.32732 " transform="matrix(0.423158,0,0,0.419834,0,0.0387135)"/>
</g>
</svg>
