<?xml version="1.0" encoding="UTF-8"?>
<svg xmlns="http://www.w3.org/2000/svg" xmlns:xlink="http://www.w3.org/1999/xlink" width="22px" height="22px" viewBox="0 0 22 22" version="1.1">
<g id="surface1">
<path style=" stroke:none;fill-rule:nonzero;fill:rgb(100%,100%,100%);fill-opacity:1;" d="M 9.625 9.625 L 12.375 9.625 L 12.375 12.375 L 9.625 12.375 Z M 9.625 9.625 "/>
<path style=" stroke:none;fill-rule:nonzero;fill:rgb(100%,100%,100%);fill-opacity:1;" d="M 3.085938 0 L 16.210938 0 C 16.3125 0 16.410156 0.0078125 16.515625 0.015625 C 16.613281 0.0234375 16.714844 0.0429688 16.8125 0.0625 C 16.914062 0.078125 17.007812 0.101562 17.105469 0.132812 C 17.203125 0.164062 17.296875 0.199219 17.390625 0.238281 C 17.484375 0.273438 17.574219 0.316406 17.664062 0.367188 C 17.753906 0.414062 17.839844 0.46875 17.921875 0.523438 C 18.007812 0.578125 18.089844 0.640625 18.167969 0.703125 C 18.246094 0.765625 18.320312 0.835938 18.390625 0.90625 C 18.460938 0.976562 18.53125 1.050781 18.597656 1.132812 C 18.660156 1.210938 18.71875 1.289062 18.777344 1.375 C 18.832031 1.457031 18.882812 1.542969 18.933594 1.632812 C 18.980469 1.722656 19.023438 1.816406 19.0625 1.90625 C 19.097656 2 19.132812 2.097656 19.164062 2.191406 C 19.195312 2.289062 19.21875 2.386719 19.234375 2.484375 C 19.257812 2.585938 19.269531 2.683594 19.28125 2.785156 C 19.292969 2.886719 19.296875 2.988281 19.296875 3.085938 L 19.296875 16.210938 C 19.296875 16.3125 19.292969 16.410156 19.28125 16.515625 C 19.269531 16.613281 19.257812 16.714844 19.234375 16.8125 C 19.21875 16.914062 19.191406 17.007812 19.164062 17.105469 C 19.136719 17.203125 19.101562 17.296875 19.0625 17.390625 C 19.023438 17.484375 18.980469 17.574219 18.933594 17.664062 C 18.886719 17.753906 18.832031 17.839844 18.777344 17.921875 C 18.71875 18.007812 18.660156 18.089844 18.597656 18.167969 C 18.53125 18.246094 18.460938 18.320312 18.390625 18.390625 C 18.320312 18.460938 18.246094 18.53125 18.167969 18.597656 C 18.089844 18.660156 18.007812 18.71875 17.921875 18.777344 C 17.839844 18.832031 17.753906 18.882812 17.664062 18.933594 C 17.574219 18.976562 17.484375 19.023438 17.390625 19.0625 C 17.296875 19.101562 17.203125 19.132812 17.105469 19.164062 C 17.007812 19.195312 16.914062 19.21875 16.8125 19.234375 C 16.714844 19.257812 16.613281 19.269531 16.515625 19.28125 C 16.410156 19.292969 16.3125 19.296875 16.210938 19.296875 L 3.085938 19.296875 C 2.988281 19.296875 2.886719 19.292969 2.785156 19.28125 C 2.683594 19.269531 2.585938 19.257812 2.484375 19.234375 C 2.386719 19.21875 2.289062 19.191406 2.191406 19.164062 C 2.097656 19.132812 2 19.101562 1.90625 19.0625 C 1.816406 19.023438 1.722656 18.980469 1.632812 18.933594 C 1.542969 18.882812 1.457031 18.832031 1.375 18.777344 C 1.289062 18.71875 1.210938 18.660156 1.132812 18.597656 C 1.050781 18.53125 0.976562 18.460938 0.90625 18.390625 C 0.835938 18.320312 0.765625 18.246094 0.703125 18.167969 C 0.640625 18.089844 0.578125 18.007812 0.523438 17.921875 C 0.46875 17.839844 0.414062 17.753906 0.367188 17.664062 C 0.320312 17.574219 0.273438 17.484375 0.238281 17.390625 C 0.199219 17.296875 0.164062 17.203125 0.132812 17.105469 C 0.101562 17.007812 0.078125 16.914062 0.0625 16.8125 C 0.0429688 16.714844 0.0234375 16.613281 0.015625 16.515625 C 0.0078125 16.410156 0 16.3125 0 16.210938 L 0 3.085938 C 0 2.988281 0.0078125 2.886719 0.015625 2.785156 C 0.0234375 2.683594 0.0429688 2.585938 0.0625 2.484375 C 0.078125 2.386719 0.101562 2.289062 0.132812 2.191406 C 0.164062 2.097656 0.199219 2 0.238281 1.90625 C 0.273438 1.816406 0.316406 1.722656 0.367188 1.632812 C 0.414062 1.542969 0.46875 1.457031 0.523438 1.375 C 0.578125 1.289062 0.640625 1.210938 0.703125 1.132812 C 0.765625 1.050781 0.835938 0.976562 0.90625 0.90625 C 0.976562 0.835938 1.050781 0.765625 1.132812 0.703125 C 1.210938 0.640625 1.289062 0.578125 1.375 0.523438 C 1.457031 0.46875 1.542969 0.414062 1.632812 0.367188 C 1.722656 0.320312 1.816406 0.273438 1.90625 0.238281 C 2 0.199219 2.097656 0.164062 2.191406 0.132812 C 2.289062 0.101562 2.386719 0.078125 2.484375 0.0625 C 2.585938 0.0429688 2.683594 0.0234375 2.785156 0.015625 C 2.886719 0.0078125 2.988281 0 3.085938 0 Z M 3.085938 0 "/>
<path style=" stroke:none;fill-rule:evenodd;fill:rgb(100%,100%,100%);fill-opacity:1;" d="M 2.867188 19.90625 C 3.28125 21.125 4.429688 22 5.789062 22 L 18.914062 22 C 20.617188 22 22 20.617188 22 18.914062 L 22 5.789062 C 22 4.429688 21.125 3.28125 19.90625 2.867188 C 20.011719 3.175781 20.070312 3.511719 20.070312 3.859375 L 20.070312 16.980469 C 20.070312 18.691406 18.6875 20.070312 16.980469 20.070312 L 3.859375 20.070312 C 3.511719 20.070312 3.175781 20.011719 2.867188 19.90625 Z M 2.867188 19.90625 "/>
</g>
</svg>
