<?xml version="1.0" encoding="UTF-8"?>
<svg xmlns="http://www.w3.org/2000/svg" xmlns:xlink="http://www.w3.org/1999/xlink" width="22px" height="22px" viewBox="0 0 22 22" version="1.1">
<g id="surface1">
<path style=" stroke:none;fill-rule:nonzero;fill:rgb(100%,100%,100%);fill-opacity:1;" d="M 20.183594 4.222656 L 16.226562 4.222656 C 16.074219 4.222656 15.949219 4.097656 15.949219 3.9375 L 15.949219 2.65625 C 15.949219 1.953125 15.394531 1.375 14.710938 1.375 L 7.289062 1.375 C 6.605469 1.375 6.050781 1.953125 6.050781 2.65625 L 6.050781 3.9375 C 6.050781 4.097656 5.925781 4.222656 5.773438 4.222656 L 1.816406 4.222656 C 0.8125 4.222656 0 5.066406 0 6.101562 L 0 18.746094 C 0 19.78125 0.8125 20.625 1.816406 20.625 L 20.183594 20.625 C 21.1875 20.625 22 19.78125 22 18.746094 L 22 6.101562 C 22 5.066406 21.1875 4.222656 20.183594 4.222656 Z M 11 17.890625 C 8.117188 17.890625 5.773438 15.464844 5.773438 12.480469 C 5.773438 9.496094 8.117188 7.070312 11 7.070312 C 13.882812 7.070312 16.226562 9.496094 16.226562 12.480469 C 16.226562 15.464844 13.882812 17.890625 11 17.890625 Z M 11 17.890625 "/>
<path style=" stroke:none;fill-rule:nonzero;fill:rgb(100%,100%,100%);fill-opacity:1;" d="M 15.675781 12.480469 C 15.675781 12.640625 15.664062 12.796875 15.652344 12.957031 C 15.636719 13.113281 15.617188 13.269531 15.585938 13.425781 C 15.554688 13.582031 15.519531 13.734375 15.476562 13.886719 C 15.429688 14.039062 15.378906 14.1875 15.316406 14.335938 C 15.261719 14.480469 15.195312 14.625 15.121094 14.765625 C 15.050781 14.902344 14.96875 15.039062 14.886719 15.171875 C 14.800781 15.304688 14.710938 15.429688 14.613281 15.550781 C 14.515625 15.675781 14.417969 15.792969 14.304688 15.90625 C 14.195312 16.015625 14.082031 16.125 13.96875 16.226562 C 13.847656 16.324219 13.726562 16.417969 13.597656 16.507812 C 13.472656 16.59375 13.335938 16.675781 13.207031 16.75 C 13.070312 16.828125 12.933594 16.894531 12.789062 16.953125 C 12.648438 17.015625 12.503906 17.070312 12.359375 17.117188 C 12.214844 17.160156 12.0625 17.199219 11.914062 17.230469 C 11.761719 17.257812 11.613281 17.285156 11.457031 17.296875 C 11.304688 17.3125 11.15625 17.320312 11 17.320312 C 10.84375 17.320312 10.695312 17.3125 10.542969 17.296875 C 10.386719 17.285156 10.238281 17.257812 10.085938 17.230469 C 9.9375 17.199219 9.789062 17.160156 9.640625 17.117188 C 9.496094 17.070312 9.351562 17.015625 9.210938 16.953125 C 9.066406 16.894531 8.929688 16.828125 8.792969 16.75 C 8.664062 16.675781 8.527344 16.59375 8.402344 16.507812 C 8.273438 16.417969 8.148438 16.324219 8.03125 16.226562 C 7.917969 16.125 7.804688 16.015625 7.695312 15.90625 C 7.582031 15.796875 7.484375 15.675781 7.386719 15.550781 C 7.289062 15.429688 7.199219 15.304688 7.113281 15.171875 C 7.03125 15.039062 6.949219 14.902344 6.878906 14.765625 C 6.804688 14.625 6.738281 14.480469 6.683594 14.335938 C 6.621094 14.1875 6.570312 14.039062 6.523438 13.886719 C 6.480469 13.734375 6.445312 13.582031 6.414062 13.425781 C 6.382812 13.269531 6.363281 13.113281 6.347656 12.957031 C 6.335938 12.796875 6.324219 12.640625 6.324219 12.480469 C 6.324219 12.320312 6.335938 12.164062 6.347656 12.007812 C 6.363281 11.847656 6.382812 11.691406 6.414062 11.535156 C 6.445312 11.378906 6.480469 11.226562 6.523438 11.074219 C 6.570312 10.921875 6.621094 10.773438 6.683594 10.628906 C 6.738281 10.480469 6.804688 10.335938 6.878906 10.199219 C 6.949219 10.058594 7.03125 9.921875 7.113281 9.789062 C 7.199219 9.65625 7.289062 9.53125 7.386719 9.410156 C 7.484375 9.289062 7.582031 9.171875 7.695312 9.054688 C 7.804688 8.945312 7.917969 8.835938 8.03125 8.738281 C 8.152344 8.636719 8.273438 8.542969 8.402344 8.453125 C 8.527344 8.367188 8.664062 8.285156 8.792969 8.210938 C 8.929688 8.136719 9.066406 8.066406 9.210938 8.007812 C 9.351562 7.945312 9.496094 7.894531 9.640625 7.84375 C 9.785156 7.804688 9.9375 7.761719 10.085938 7.730469 C 10.238281 7.703125 10.386719 7.675781 10.542969 7.664062 C 10.695312 7.648438 10.84375 7.640625 11 7.640625 C 11.15625 7.640625 11.304688 7.648438 11.457031 7.664062 C 11.613281 7.675781 11.761719 7.703125 11.914062 7.730469 C 12.0625 7.761719 12.210938 7.804688 12.359375 7.84375 C 12.503906 7.894531 12.648438 7.945312 12.789062 8.007812 C 12.933594 8.066406 13.070312 8.136719 13.207031 8.210938 C 13.335938 8.285156 13.472656 8.367188 13.597656 8.453125 C 13.726562 8.542969 13.851562 8.636719 13.96875 8.738281 C 14.082031 8.839844 14.195312 8.945312 14.304688 9.054688 C 14.417969 9.167969 14.515625 9.289062 14.613281 9.410156 C 14.710938 9.53125 14.800781 9.65625 14.886719 9.789062 C 14.96875 9.921875 15.050781 10.058594 15.121094 10.199219 C 15.195312 10.335938 15.261719 10.480469 15.316406 10.628906 C 15.378906 10.773438 15.429688 10.921875 15.476562 11.074219 C 15.519531 11.226562 15.554688 11.378906 15.585938 11.535156 C 15.617188 11.691406 15.636719 11.847656 15.652344 12.007812 C 15.664062 12.164062 15.675781 12.320312 15.675781 12.480469 Z M 15.675781 12.480469 "/>
</g>
</svg>
