<svg xmlns="http://www.w3.org/2000/svg" viewBox="0 0 22 22"><title>Asset 9</title><g id="Layer_2" data-name="Layer 2"><g id="post"><path d="M11,22A11,11,0,0,1,.5,14.3a1,1,0,0,1,1.91-.6A9,9,0,1,0,11,2a1,1,0,0,1,0-2,11,11,0,0,1,0,22Z"/><path d="M7,16a1,1,0,0,1-.71-.29,1,1,0,0,1,0-1.42L10,10.59V4a1,1,0,0,1,2,0v7a1,1,0,0,1-.29.71l-4,4A1,1,0,0,1,7,16Z"/><path d="M8.86,1.18A1,1,0,1,1,7.6.54,1,1,0,0,1,8.86,1.18Z"/><path d="M5.93,2.32a1,1,0,0,1-.22,1.4A1,1,0,0,1,4.53,2.1,1,1,0,0,1,5.93,2.32Z"/><path d="M3.5,4.31a1,1,0,0,1,.22,1.4,1,1,0,0,1-1.4.22A1,1,0,0,1,3.5,4.31Z"/><path d="M1.8,7A1,1,0,1,1,.54,7.6,1,1,0,0,1,1.8,7Z"/><circle cx="1" cy="11" r="1"/></g></g></svg>