<?xml version="1.0" encoding="UTF-8"?>
<svg xmlns="http://www.w3.org/2000/svg" xmlns:xlink="http://www.w3.org/1999/xlink" width="25px" height="25px" viewBox="0 0 25 25" version="1.1">
<g id="surface1">
<path style=" stroke:none;fill-rule:nonzero;fill:rgb(0%,0%,0%);fill-opacity:1;" d="M 24.589844 24.976562 L 16.359375 24.976562 C 16.128906 24.976562 15.949219 24.804688 15.949219 24.59375 L 15.949219 17.246094 C 15.949219 15.496094 14.398438 14.054688 12.511719 14.054688 C 10.621094 14.054688 9.070312 15.496094 9.070312 17.246094 L 9.070312 24.59375 C 9.070312 24.804688 8.890625 24.976562 8.660156 24.976562 L 0.410156 24.976562 C 0.179688 24.976562 0 24.804688 0 24.59375 L 0 11.574219 C 0 11.476562 0.0390625 11.375 0.121094 11.304688 L 12.199219 0.136719 C 12.359375 -0.015625 12.621094 -0.015625 12.78125 0.136719 C 16.808594 3.855469 20.851562 7.585938 24.878906 11.304688 C 24.960938 11.375 25 11.476562 25 11.574219 L 25 24.59375 C 25 24.804688 24.820312 24.976562 24.589844 24.976562 Z M 24.589844 24.976562 "/>
</g>
</svg>
