<?xml version="1.0" encoding="UTF-8"?>
<svg xmlns="http://www.w3.org/2000/svg" xmlns:xlink="http://www.w3.org/1999/xlink" width="25px" height="25px" viewBox="0 0 25 25" version="1.1">
<g id="surface1">
<path style="fill-rule:nonzero;fill:rgb(0%,0%,0%);fill-opacity:1;stroke-width:1;stroke-linecap:butt;stroke-linejoin:miter;stroke:rgb(0%,0%,0%);stroke-opacity:1;stroke-miterlimit:10;" d="M 19.099375 0.499688 L 6.830625 0.499688 C 3.340937 0.499688 0.50125 3.359688 0.50125 6.881875 L 0.50125 19.11 C 0.50125 22.628125 3.340937 25.488125 6.830625 25.488125 L 19.111563 25.488125 C 22.60125 25.488125 25.440938 22.628125 25.440938 19.11 L 25.440938 6.881875 C 25.440938 3.359688 22.60125 0.499688 19.111563 0.499688 Z M 24.660937 6.881875 L 24.660937 7.759375 C 22.91 7.759375 21.159063 7.759375 19.408125 7.759375 C 18.689063 6.560938 17.941562 5.350313 17.210313 4.180313 C 16.62125 3.229688 16.011875 2.250625 15.410625 1.279688 L 19.099375 1.279688 C 22.170625 1.279688 24.660937 3.798437 24.660937 6.89 Z M 11.510625 7.75125 L 11.039375 6.991563 C 9.881562 5.11875 8.69125 3.189062 7.529375 1.271563 L 14.50875 1.271563 C 15.179063 2.38875 15.881875 3.501875 16.560313 4.590625 C 17.210313 5.630625 17.880625 6.690938 18.518438 7.759375 L 11.51875 7.759375 Z M 6.631563 1.279688 C 7.858437 3.339375 9.150313 5.41125 10.38125 7.41 L 10.600625 7.759375 C 7.48875 7.759375 4.380937 7.759375 1.269062 7.759375 L 1.269062 6.881875 C 1.269062 3.859375 3.661875 1.38125 6.631563 1.279688 Z M 19.099375 24.728438 L 6.830625 24.728438 C 3.759375 24.728438 1.269062 22.209688 1.269062 19.118125 L 1.269062 8.539375 C 9.08125 8.539375 16.88125 8.539375 24.660937 8.539375 L 24.660937 19.118125 C 24.660937 22.209688 22.170625 24.728438 19.099375 24.728438 Z M 10.698125 20.889375 C 10.499063 20.889375 10.291875 20.840625 10.109063 20.730937 C 9.719062 20.499375 9.491563 20.089063 9.491563 19.63 L 9.491563 12.95125 C 9.491563 12.488125 9.719062 12.069688 10.109063 11.850313 C 10.47875 11.630937 10.929688 11.630937 11.299375 11.850313 L 17.039687 15.181563 C 17.429688 15.409063 17.66125 15.819375 17.66125 16.278437 C 17.66125 16.741563 17.429688 17.16 17.039687 17.391562 L 11.299375 20.739062 C 11.108438 20.84875 10.909375 20.901563 10.698125 20.901563 Z M 10.698125 12.451562 C 10.629062 12.451562 10.56 12.471875 10.490937 12.508438 C 10.340625 12.601875 10.25125 12.760313 10.25125 12.939063 L 10.25125 19.621875 C 10.25125 19.800625 10.340625 19.97125 10.490937 20.048438 C 10.620938 20.129687 10.779375 20.129687 10.909375 20.048438 L 16.649687 16.700938 C 16.8 16.611563 16.889375 16.449063 16.889375 16.270312 C 16.889375 16.091563 16.8 15.920938 16.649687 15.839688 L 10.909375 12.508438 C 10.840312 12.471875 10.77125 12.451562 10.698125 12.451562 Z M 10.698125 12.451562 " transform="matrix(0.961538,0,0,0.961538,0.0336538,0)"/>
</g>
</svg>
