<?xml version="1.0" encoding="UTF-8"?>
<svg xmlns="http://www.w3.org/2000/svg" xmlns:xlink="http://www.w3.org/1999/xlink" width="25px" height="25px" viewBox="0 0 25 25" version="1.1">
<g id="surface1">
<path style="fill-rule:nonzero;fill:rgb(0%,0%,0%);fill-opacity:1;stroke-width:1;stroke-linecap:butt;stroke-linejoin:miter;stroke:rgb(0%,0%,0%);stroke-opacity:1;stroke-miterlimit:10;" d="M 13 25.500312 C 6.11 25.500312 0.499688 19.89 0.499688 13 C 0.499688 6.11 6.11 0.499688 13 0.499688 C 19.89 0.499688 25.500312 6.11 25.500312 13 C 25.500312 19.89 19.89 25.500312 13 25.500312 Z M 13 1.69 C 6.76 1.69 1.69 6.768125 1.69 13 C 1.69 19.231875 6.76 24.31 13 24.31 C 19.24 24.31 24.31 19.24 24.31 13 C 24.31 6.76 19.24 1.69 13 1.69 Z M 13 1.69 " transform="matrix(0.961538,0,0,0.961538,0,0)"/>
<path style="fill-rule:nonzero;fill:rgb(0%,0%,0%);fill-opacity:1;stroke-width:1;stroke-linecap:butt;stroke-linejoin:miter;stroke:rgb(0%,0%,0%);stroke-opacity:1;stroke-miterlimit:10;" d="M 13 14.791563 C 10.050625 14.791563 7.641563 12.390625 7.641563 9.429063 C 7.641563 6.471563 10.038438 4.070625 13 4.070625 C 15.961563 4.070625 18.358438 6.471563 18.358438 9.429063 C 18.358438 12.390625 15.961563 14.791563 13 14.791563 Z M 13 5.269063 C 10.700625 5.269063 8.831875 7.141875 8.831875 9.44125 C 8.831875 11.740625 10.700625 13.609375 13 13.609375 C 15.299375 13.609375 17.168125 11.740625 17.168125 9.44125 C 17.168125 7.141875 15.299375 5.269063 13 5.269063 Z M 13 5.269063 " transform="matrix(0.961538,0,0,0.961538,0,0)"/>
<path style="fill-rule:nonzero;fill:rgb(0%,0%,0%);fill-opacity:1;stroke-width:1;stroke-linecap:butt;stroke-linejoin:miter;stroke:rgb(0%,0%,0%);stroke-opacity:1;stroke-miterlimit:10;" d="M 21.051875 21.600313 C 19.28875 18.829688 16.278437 17.168125 13 17.168125 C 9.721563 17.168125 6.71125 18.829688 4.948125 21.600313 L 3.940625 20.958438 C 5.919062 17.838438 9.299062 15.969688 13 15.969688 C 16.700938 15.969688 20.080938 17.830313 22.059375 20.958438 Z M 21.051875 21.600313 " transform="matrix(0.961538,0,0,0.961538,0,0)"/>
</g>
</svg>
