<?xml version="1.0" encoding="UTF-8"?>
<svg xmlns="http://www.w3.org/2000/svg" xmlns:xlink="http://www.w3.org/1999/xlink" width="25px" height="25px" viewBox="0 0 25 25" version="1.1">
<g id="surface1">
<path style="fill-rule:nonzero;fill:rgb(0%,0%,0%);fill-opacity:1;stroke-width:1;stroke-linecap:butt;stroke-linejoin:miter;stroke:rgb(0%,0%,0%);stroke-opacity:1;stroke-miterlimit:10;" d="M 13 0.499688 C 6.101875 0.499688 0.499688 6.101875 0.499688 13 C 0.499688 19.898125 6.101875 25.500312 13 25.500312 C 19.898125 25.500312 25.500312 19.898125 25.500312 13 C 25.500312 6.101875 19.898125 0.499688 13 0.499688 Z M 13 4.001563 C 15.490312 4.001563 17.50125 6.008438 17.50125 8.49875 C 17.50125 10.989063 15.490312 13 13 13 C 10.509688 13 8.49875 10.980937 8.49875 8.49875 C 8.49875 6.020625 10.509688 4.001563 13 4.001563 Z M 13 22.498125 C 9.810937 22.498125 6.991563 20.921875 5.260937 18.500625 C 6.979375 16.079375 9.79875 14.499063 13 14.499063 C 16.20125 14.499063 19.008437 16.079375 20.739062 18.500625 C 19.020625 20.921875 16.20125 22.498125 13 22.498125 Z M 13 22.498125 " transform="matrix(0.961538,0,0,0.961538,0,0)"/>
</g>
</svg>
