<svg xmlns="http://www.w3.org/2000/svg" viewBox="0 0 22 22"><title>Asset 6</title><g id="Layer_2" data-name="Layer 2"><g id="post"><path d="M22,11a2.5,2.5,0,0,0-2.36-2.49,8.68,8.68,0,0,0-.77-1.86,2.49,2.49,0,0,0-.09-3.43,2.57,2.57,0,0,0-3.43-.09,8.68,8.68,0,0,0-1.86-.77,2.49,2.49,0,0,0-5,0,8.68,8.68,0,0,0-1.86.77,2.57,2.57,0,0,0-3.43.09,2.49,2.49,0,0,0-.09,3.43,8.68,8.68,0,0,0-.77,1.86,2.49,2.49,0,0,0,0,5,8.68,8.68,0,0,0,.77,1.86,2.49,2.49,0,0,0,3.52,3.52,8.68,8.68,0,0,0,1.86.77,2.49,2.49,0,0,0,5,0,8.68,8.68,0,0,0,1.86-.77,2.49,2.49,0,0,0,3.52-3.52,8.68,8.68,0,0,0,.77-1.86A2.5,2.5,0,0,0,22,11ZM11,18a7,7,0,1,1,7-7A7,7,0,0,1,11,18Z"/></g></g></svg>