<svg xmlns="http://www.w3.org/2000/svg" xmlns:xlink="http://www.w3.org/1999/xlink" width="25px" height="25px" viewBox="0 0 25 25" version="1.1">
<g id="surface1">
<path style="fill-rule:nonzero;fill:#ffffff;fill-opacity:1;stroke-width:1;stroke-linecap:butt;stroke-linejoin:miter;stroke:#ffffff;stroke-opacity:1;stroke-miterlimit:10;" d="M 25.390625 24.821875 L 19.118125 18.289375 C 20.580625 16.408438 21.45 14.019687 21.45 11.431875 C 21.458125 5.399063 16.749688 0.499688 10.980937 0.499688 C 5.208125 0.499688 0.499688 5.399063 0.499688 11.431875 C 0.499688 17.460625 5.2 22.36 10.980937 22.36 C 13.99125 22.36 16.709063 21.031562 18.630625 18.89875 L 24.858438 25.390625 C 25.00875 25.540938 25.248438 25.540938 25.39875 25.390625 C 25.549063 25.240313 25.549063 24.980313 25.39875 24.83 Z M 10.980937 21.559687 C 5.618437 21.559687 1.259375 17.009688 1.259375 11.431875 C 1.259375 5.85 5.618437 1.291875 10.980937 1.291875 C 16.339375 1.291875 20.698438 5.841875 20.698438 11.419688 C 20.698438 17.001563 16.339375 21.551562 10.980937 21.551562 Z M 10.980937 21.559687 " transform="matrix(0.961538,0,0,0.961538,0,0)"/>
</g>
</svg>