<svg xmlns="http://www.w3.org/2000/svg" viewBox="0 0 21.1 16"><title>Asset 17</title><g id="Layer_2" data-name="Layer 2"><g id="post"><path d="M20.1,3H7.1a1,1,0,0,1,0-2h13a1,1,0,0,1,0,2Z"/><path d="M20.1,9H7.1a1,1,0,0,1,0-2h13a1,1,0,0,1,0,2Z"/><path d="M20.1,15H7.1a1,1,0,0,1,0-2h13a1,1,0,0,1,0,2Z"/><polygon points="2.1 0 2.87 1.16 4.21 1.53 3.34 2.61 3.4 4 2.1 3.51 0.8 4 0.87 2.61 0 1.53 1.34 1.16 2.1 0"/><polygon points="2.1 6 2.87 7.16 4.21 7.53 3.34 8.61 3.4 10 2.1 9.51 0.8 10 0.87 8.61 0 7.53 1.34 7.16 2.1 6"/><polygon points="2.1 12 2.87 13.16 4.21 13.53 3.34 14.61 3.4 16 2.1 15.51 0.8 16 0.87 14.61 0 13.53 1.34 13.16 2.1 12"/></g></g></svg>