<?xml version="1.0" encoding="UTF-8"?>
<svg xmlns="http://www.w3.org/2000/svg" xmlns:xlink="http://www.w3.org/1999/xlink" width="25px" height="23px" viewBox="0 0 24 23" version="1.1">
<g id="surface1">
<path style="fill-rule:nonzero;fill:rgb(0%,0%,0%);fill-opacity:1;stroke-width:5;stroke-linecap:butt;stroke-linejoin:miter;stroke:rgb(0%,0%,0%);stroke-opacity:1;stroke-miterlimit:10;" d="M 120.623455 93.224399 C 95.566987 93.224399 75.181499 72.853862 75.181499 47.844811 C 75.181499 22.835761 95.566987 2.497661 120.623455 2.497661 C 145.646559 2.497661 166.032048 22.835761 166.032048 47.844811 C 166.032048 72.853862 145.646559 93.224399 120.623455 93.224399 Z M 120.623455 11.547629 C 100.571608 11.547629 84.256545 27.831084 84.256545 47.844811 C 84.256545 67.858539 100.571608 84.141994 120.623455 84.141994 C 140.641939 84.141994 156.957002 67.858539 156.957002 47.844811 C 156.957002 27.831084 140.641939 11.580066 120.623455 11.580066 Z M 120.623455 11.547629 " transform="matrix(0.117079,0,0,0.120425,0.00639645,0)"/>
<path style="fill-rule:nonzero;fill:rgb(0%,0%,0%);fill-opacity:1;stroke-width:5;stroke-linecap:butt;stroke-linejoin:miter;stroke:rgb(0%,0%,0%);stroke-opacity:1;stroke-miterlimit:10;" d="M 202.365595 188.492339 L 38.847952 188.492339 L 38.847952 183.951136 C 38.847952 138.928358 75.51514 102.274367 120.623455 102.274367 C 165.698407 102.274367 202.365595 138.928358 202.365595 183.951136 Z M 48.056454 179.409934 L 193.123728 179.409934 C 190.788239 141.490893 159.159035 111.356771 120.590091 111.356771 C 82.054511 111.356771 50.425308 141.490893 48.056454 179.409934 Z M 48.056454 179.409934 " transform="matrix(0.117079,0,0,0.120425,0.00639645,0)"/>
<path style="fill-rule:nonzero;fill:rgb(0%,0%,0%);fill-opacity:1;stroke-width:5;stroke-linecap:butt;stroke-linejoin:miter;stroke:rgb(0%,0%,0%);stroke-opacity:1;stroke-miterlimit:10;" d="M 2.514405 84.141994 L 66.106453 84.141994 L 66.106453 93.224399 L 2.514405 93.224399 Z M 2.514405 84.141994 " transform="matrix(0.117079,0,0,0.120425,0.00639645,0)"/>
<path style="fill-rule:nonzero;fill:rgb(0%,0%,0%);fill-opacity:1;stroke-width:5;stroke-linecap:butt;stroke-linejoin:miter;stroke:rgb(0%,0%,0%);stroke-opacity:1;stroke-miterlimit:10;" d="M 29.772906 56.927216 L 38.847952 56.927216 L 38.847952 120.439176 L 29.772906 120.439176 Z M 29.772906 56.927216 " transform="matrix(0.117079,0,0,0.120425,0.00639645,0)"/>
</g>
</svg>
