<svg id="SvgjsSvg1001" width="288" height="288" xmlns="http://www.w3.org/2000/svg" version="1.1" xmlns:xlink="http://www.w3.org/1999/xlink" xmlns:svgjs="http://svgjs.com/svgjs"><defs id="SvgjsDefs1002"></defs><g id="SvgjsG1008"><svg xmlns="http://www.w3.org/2000/svg" viewBox="0 0 64 64" width="288" height="288"><path d="M23.727 16.403v24.134a8.296 8.296 0 0 0-4.35-1.233c-4.612 0-8.353 3.74-8.353 8.349a8.354 8.354 0 0 0 8.353 8.354c4.61 0 8.349-3.739 8.35-8.352V25.151l21.25-6.109V33.33a8.296 8.296 0 0 0-4.35-1.233c-4.614 0-8.353 3.739-8.353 8.348a8.354 8.354 0 0 0 8.353 8.354c4.344 0 7.914-3.325 8.31-7.57h.04V7.993l-29.25 8.41z" fill="#ffffff" class="color000 svgShape"></path></svg></g></svg>