<svg xmlns="http://www.w3.org/2000/svg" viewBox="0 0 22 22"><title>Asset 29</title><g id="Layer_2" data-name="Layer 2"><g id="post"><path d="M19,22H3a3,3,0,0,1-3-3V6A3,3,0,0,1,3,3H7.59L10.29.29a1,1,0,0,1,1.42,0L14.41,3H19a3,3,0,0,1,3,3V19A3,3,0,0,1,19,22ZM3,5A1,1,0,0,0,2,6V19a1,1,0,0,0,1,1H19a1,1,0,0,0,1-1V6a1,1,0,0,0-1-1H14a1,1,0,0,1-.71-.29L11,2.41,8.71,4.71A1,1,0,0,1,8,5Z"/><path d="M11,13a4,4,0,1,1,4-4A4,4,0,0,1,11,13Zm0-6a2,2,0,1,0,2,2A2,2,0,0,0,11,7Z"/><path d="M18,19a1,1,0,0,1-1-1,3,3,0,0,0-3-3H8a3,3,0,0,0-3,3,1,1,0,0,1-2,0,5,5,0,0,1,5-5h6a5,5,0,0,1,5,5A1,1,0,0,1,18,19Z"/></g></g></svg>