<?xml version="1.0" encoding="UTF-8"?>
<svg xmlns="http://www.w3.org/2000/svg" xmlns:xlink="http://www.w3.org/1999/xlink" width="25px" height="25px" viewBox="0 0 25 25" version="1.1">
<g id="surface1">
<rect x="0" y="0" width="25" height="25" style="fill:rgb(100%,100%,100%);fill-opacity:1;stroke:none;"/>
<path style=" stroke:none;fill-rule:nonzero;fill:rgb(100%,100%,100%);fill-opacity:1;" d="M 5.011719 2.078125 L 17.441406 2.078125 C 17.539062 2.078125 17.628906 2.078125 17.730469 2.089844 C 17.828125 2.089844 17.921875 2.109375 18.011719 2.128906 C 18.101562 2.148438 18.199219 2.171875 18.289062 2.199219 C 18.378906 2.230469 18.46875 2.261719 18.558594 2.300781 C 18.648438 2.339844 18.738281 2.378906 18.820312 2.421875 C 18.898438 2.46875 18.988281 2.511719 19.070312 2.570312 C 19.148438 2.628906 19.230469 2.679688 19.300781 2.738281 C 19.371094 2.800781 19.441406 2.871094 19.511719 2.929688 C 19.578125 2.988281 19.640625 3.070312 19.699219 3.140625 C 19.761719 3.210938 19.820312 3.289062 19.871094 3.371094 C 19.921875 3.449219 19.96875 3.53125 20.019531 3.621094 C 20.070312 3.710938 20.109375 3.789062 20.140625 3.878906 C 20.179688 3.96875 20.210938 4.058594 20.238281 4.148438 C 20.269531 4.238281 20.289062 4.328125 20.308594 4.429688 C 20.328125 4.519531 20.339844 4.621094 20.351562 4.710938 C 20.351562 4.808594 20.359375 4.898438 20.359375 5 L 20.359375 17.429688 C 20.359375 17.53125 20.359375 17.621094 20.351562 17.71875 C 20.351562 17.820312 20.328125 17.910156 20.308594 18 C 20.289062 18.089844 20.269531 18.191406 20.238281 18.28125 C 20.210938 18.371094 20.179688 18.460938 20.140625 18.550781 C 20.101562 18.640625 20.058594 18.730469 20.019531 18.808594 C 19.96875 18.890625 19.929688 18.980469 19.871094 19.058594 C 19.808594 19.140625 19.761719 19.21875 19.699219 19.289062 C 19.640625 19.359375 19.570312 19.429688 19.511719 19.5 C 19.441406 19.570312 19.371094 19.628906 19.300781 19.691406 C 19.230469 19.75 19.148438 19.808594 19.070312 19.859375 C 18.988281 19.910156 18.910156 19.960938 18.820312 20.011719 C 18.738281 20.058594 18.648438 20.101562 18.558594 20.128906 C 18.46875 20.160156 18.378906 20.199219 18.289062 20.230469 C 18.199219 20.261719 18.109375 20.28125 18.011719 20.300781 C 17.921875 20.320312 17.820312 20.328125 17.730469 20.339844 C 17.628906 20.339844 17.539062 20.351562 17.441406 20.351562 L 5.011719 20.351562 C 4.910156 20.351562 4.820312 20.351562 4.71875 20.339844 C 4.628906 20.339844 4.53125 20.320312 4.441406 20.300781 C 4.351562 20.28125 4.25 20.261719 4.160156 20.230469 C 4.070312 20.199219 3.980469 20.171875 3.890625 20.128906 C 3.800781 20.089844 3.71875 20.050781 3.628906 20.011719 C 3.539062 19.96875 3.460938 19.921875 3.378906 19.859375 C 3.300781 19.808594 3.21875 19.75 3.148438 19.691406 C 3.078125 19.628906 3.011719 19.558594 2.941406 19.5 C 2.871094 19.441406 2.808594 19.359375 2.75 19.289062 C 2.691406 19.21875 2.628906 19.140625 2.578125 19.058594 C 2.53125 18.980469 2.480469 18.898438 2.429688 18.808594 C 2.378906 18.730469 2.339844 18.640625 2.308594 18.550781 C 2.269531 18.460938 2.238281 18.371094 2.210938 18.28125 C 2.179688 18.191406 2.160156 18.101562 2.140625 18 C 2.121094 17.910156 2.109375 17.808594 2.101562 17.71875 C 2.101562 17.621094 2.089844 17.53125 2.089844 17.429688 L 2.089844 5.011719 C 2.089844 4.910156 2.089844 4.820312 2.101562 4.71875 C 2.101562 4.628906 2.121094 4.53125 2.140625 4.441406 C 2.160156 4.351562 2.179688 4.25 2.210938 4.160156 C 2.238281 4.070312 2.269531 3.980469 2.308594 3.890625 C 2.351562 3.800781 2.390625 3.71875 2.429688 3.628906 C 2.480469 3.550781 2.519531 3.460938 2.578125 3.378906 C 2.628906 3.300781 2.691406 3.21875 2.75 3.148438 C 2.808594 3.078125 2.878906 3.011719 2.941406 2.941406 C 3.011719 2.871094 3.078125 2.808594 3.148438 2.75 C 3.21875 2.691406 3.300781 2.628906 3.378906 2.578125 C 3.460938 2.53125 3.539062 2.480469 3.628906 2.429688 C 3.710938 2.378906 3.800781 2.339844 3.890625 2.308594 C 3.980469 2.269531 4.070312 2.238281 4.160156 2.210938 C 4.25 2.179688 4.339844 2.160156 4.441406 2.140625 C 4.53125 2.121094 4.628906 2.109375 4.71875 2.101562 C 4.820312 2.101562 4.910156 2.089844 5.011719 2.089844 Z M 5.011719 2.078125 "/>
<path style=" stroke:none;fill-rule:evenodd;fill:rgb(100%,100%,100%);fill-opacity:1;" d="M 4.800781 20.929688 C 5.191406 22.078125 6.28125 22.910156 7.570312 22.910156 L 20 22.910156 C 21.609375 22.910156 22.921875 21.601562 22.921875 19.988281 L 22.921875 7.570312 C 22.921875 6.28125 22.089844 5.191406 20.941406 4.800781 C 21.039062 5.101562 21.101562 5.410156 21.101562 5.738281 L 21.101562 18.171875 C 21.101562 19.789062 19.789062 21.089844 18.179688 21.089844 L 5.738281 21.089844 C 5.410156 21.089844 5.089844 21.039062 4.800781 20.929688 Z M 4.800781 20.929688 "/>
<path style="fill-rule:nonzero;fill:rgb(0%,0%,0%);fill-opacity:1;stroke-width:1;stroke-linecap:butt;stroke-linejoin:miter;stroke:rgb(0%,0%,0%);stroke-opacity:1;stroke-miterlimit:10;" d="M 20.210938 10.789062 L 21.089844 10.789062 L 21.089844 20.75 C 21.089844 21.941406 20.121094 22.910156 18.921875 22.910156 L 4.25 22.910156 C 3.050781 22.910156 2.078125 21.941406 2.078125 20.75 L 2.078125 6.109375 C 2.078125 4.921875 3.050781 3.949219 4.25 3.949219 L 14.351562 3.949219 L 14.351562 4.828125 L 4.25 4.828125 C 3.539062 4.828125 2.960938 5.398438 2.960938 6.109375 L 2.960938 20.75 C 2.960938 21.460938 3.539062 22.03125 4.25 22.03125 L 18.921875 22.03125 C 19.628906 22.03125 20.210938 21.460938 20.210938 20.75 Z M 22.628906 5.300781 L 20.550781 7.378906 L 8.410156 19.488281 C 8.328125 19.570312 8.21875 19.621094 8.101562 19.621094 L 5.621094 19.621094 C 5.5 19.628906 5.390625 19.578125 5.308594 19.5 C 5.230469 19.421875 5.179688 19.300781 5.179688 19.191406 L 5.179688 16.71875 C 5.191406 16.601562 5.238281 16.488281 5.320312 16.410156 L 17.460938 4.289062 L 19.539062 2.210938 C 19.621094 2.128906 19.730469 2.078125 19.851562 2.078125 C 19.96875 2.078125 20.078125 2.128906 20.160156 2.210938 L 22.628906 4.671875 C 22.800781 4.839844 22.800781 5.121094 22.628906 5.289062 Z M 18.390625 4.601562 L 20.238281 6.441406 L 21.699219 4.980469 L 19.851562 3.140625 Z M 19.609375 7.058594 L 17.761719 5.21875 L 6.058594 16.898438 L 6.058594 18.75 C 6.058594 18.75 7.910156 18.75 7.910156 18.75 L 19.609375 7.070312 Z M 19.609375 7.058594 "/>
</g>
</svg>
